<?xml version="1.0" encoding="UTF-8"?>
<svg width="32px" height="34px" viewBox="0 0 32 34" version="1.1" xmlns="http://www.w3.org/2000/svg" xmlns:xlink="http://www.w3.org/1999/xlink">
    <!-- Generator: Sketch 51.3 (57544) - http://www.bohemiancoding.com/sketch -->
    <title>next-card</title>
    <desc>Created with Sketch.</desc>
    <defs></defs>
    <g id="Page-1" stroke="none" stroke-width="1" fill="none" fill-rule="evenodd">
        <g id="Desktop-HD---Home" transform="translate(-1728.000000, -1555.000000)" fill="#242424" fill-rule="nonzero">
            <g id="Featured-Stock" transform="translate(0.000000, 920.000000)">
                <g id="Pagination" transform="translate(160.000000, 635.600823)">
                    <g id="next-card" transform="translate(1568.000000, 0.000000)">
                        <path d="M31.0627797,10.778091 C29.6284203,6.69946944 26.7131661,3.431162 22.8539661,1.57521378 C18.9948746,-0.280844398 14.6536136,-0.502199047 10.6301831,0.951835986 C6.60675254,2.40587102 3.38256271,5.36111503 1.55172881,9.2732533 C-0.27899661,13.1853916 -0.497355932,17.5860935 0.936894915,21.6648251 C1.05762712,22.0081282 1.43012881,22.1869274 1.76856949,22.064759 C2.10722712,21.9423706 2.28382373,21.5649791 2.16309153,21.2216759 C0.845450847,17.4750313 1.04602034,13.4324775 2.72781017,9.83879078 C4.4096,6.24510411 7.37128136,3.53034824 11.0672271,2.19474289 C14.7631729,0.859137542 18.7511322,1.06256829 22.2960814,2.76731798 C25.8412475,4.47217763 28.5191593,7.47448562 29.8368,11.2211302 C31.1543322,14.9677748 30.9537627,19.0103287 29.2719729,22.6040154 C27.5901831,26.1977021 24.6285017,28.9124579 20.9325559,30.2480633 C16.7900203,31.7449837 12.2456949,31.2919379 8.46503051,29.0050464 C8.15609492,28.81822 7.7568,28.9205952 7.57261017,29.2335486 C7.38842034,29.5465021 7.48930169,29.9514942 7.79802034,30.1382107 C10.3153898,31.6609723 13.1432136,32.4367582 15.9922983,32.4366483 C17.8010034,32.4366483 19.6186034,32.1238048 21.3696,31.4910801 C25.393139,30.0370451 28.6171119,27.0818011 30.4479458,23.1696628 C32.2787797,19.2574146 32.497139,14.8567126 31.0627797,10.778091 Z" id="Shape"></path>
                        <path d="M23.1592136,16.2214581 C23.1592136,15.8571521 22.8677424,15.5616827 22.5083661,15.5616827 L6.29901017,15.5616827 C5.93952542,15.5616827 5.64816271,15.8571521 5.64816271,16.2214581 C5.64816271,16.5857641 5.93952542,16.8812335 6.29901017,16.8812335 L22.5083661,16.8812335 C22.8677424,16.8812335 23.1592136,16.5857641 23.1592136,16.2214581 Z" id="Shape"></path>
                        <path d="M17.9727186,23.1223789 C17.7184542,23.3800212 17.7184542,23.797769 17.9727186,24.0554113 C18.0997424,24.1841775 18.2663593,24.2486155 18.4328678,24.2486155 C18.5993763,24.2486155 18.7659932,24.1841775 18.8930169,24.0554113 L26.1608136,16.6879193 C26.415078,16.430277 26.415078,16.0125292 26.1608136,15.7548869 L18.8930169,8.38739485 C18.6389695,8.12975256 18.2266576,8.12975256 17.9727186,8.38739485 C17.7184542,8.64503715 17.7184542,9.06278494 17.9727186,9.32042724 L24.7802576,16.2213481 L17.9727186,23.1223789 Z" id="Shape"></path>
                    </g>
                </g>
            </g>
        </g>
    </g>
</svg>