<?xml version="1.0" encoding="UTF-8"?>
<svg width="32px" height="33px" viewBox="0 0 32 33" version="1.1" xmlns="http://www.w3.org/2000/svg" xmlns:xlink="http://www.w3.org/1999/xlink">
    <!-- Generator: Sketch 51.3 (57544) - http://www.bohemiancoding.com/sketch -->
    <title>prev-card</title>
    <desc>Created with Sketch.</desc>
    <defs></defs>
    <g id="Page-1" stroke="none" stroke-width="1" fill="none" fill-rule="evenodd">
        <g id="Desktop-HD---Home" transform="translate(-160.000000, -1555.000000)" fill="#242424" fill-rule="nonzero">
            <g id="Featured-Stock" transform="translate(0.000000, 920.000000)">
                <g id="Pagination" transform="translate(160.000000, 635.600823)">
                    <g id="prev-card">
                        <path d="M31.0627797,10.7763316 C28.0967604,2.34376038 18.949416,-2.05536582 10.6305085,0.950076585 C6.63527021,2.39322493 3.36934851,5.38638726 1.55143266,9.27089693 C-0.266483184,13.1554066 -0.487427408,17.6129546 0.937220339,21.6626258 C1.0066465,21.8952362 1.19659603,22.0703242 1.43160735,22.1183322 C1.66661867,22.1663402 1.90863759,22.0794946 2.06151681,21.8922967 C2.21439602,21.7050988 2.2533806,21.4478606 2.16298305,21.2227756 C0.16617636,15.5491971 1.73800974,9.21492579 6.14534281,5.17441607 C10.5526759,1.13390636 16.9272705,0.183132732 22.2958644,2.76555858 C27.1809374,5.12406725 30.3914912,10.0139673 30.6520677,15.4926459 C30.9126441,20.9713245 28.1810497,26.1516513 23.542466,28.9756356 C18.9038824,31.7996199 13.1094083,31.8099904 8.46101695,29.0026272 C8.15218681,28.8158805 7.75249091,28.9182829 7.56827119,29.2313494 C7.38405146,29.5444159 7.48506816,29.9495946 7.79389831,30.1363413 C13.5862616,33.6477882 20.9297603,33.0947526 26.1466884,28.7542011 C31.3636166,24.4136495 33.3306913,17.2201678 31.0627797,10.7763316 Z" id="Shape"></path>
                        <g id="Group" transform="translate(5.640678, 8.137230)">
                            <path d="M3.85084746,8.74202413 L20.0602034,8.74202413 C20.4196565,8.74202413 20.7110508,8.44663262 20.7110508,8.08224873 C20.7110508,7.71786483 20.4196565,7.42247332 20.0602034,7.42247332 L3.85084746,7.42247332 C3.49139433,7.42247332 3.2,7.71786483 3.2,8.08224873 C3.2,8.44663262 3.49139433,8.74202413 3.85084746,8.74202413 Z" id="Shape"></path>
                            <path d="M1.57830508,8.08224873 L8.38616949,1.18099798 C8.62512498,0.921037886 8.61807414,0.515935815 8.37022095,0.264682716 C8.12236776,0.0134296176 7.72274745,0.00628206435 7.46630508,0.248515403 L0.198508475,7.61600744 C-0.0552815755,7.87359919 -0.0552815755,8.29089826 0.198508475,8.54849001 L7.46630508,15.9159821 C7.72274745,16.1582154 8.12236776,16.1510678 8.37022095,15.8998147 C8.61807414,15.6485616 8.62512498,15.2434596 8.38616949,14.9834995 L1.57830508,8.08224873 Z" id="Shape"></path>
                        </g>
                    </g>
                </g>
            </g>
        </g>
    </g>
</svg>